<?xml version="1.0" encoding="UTF-8"?>
<svg id="Layer_1" data-name="Layer 1" xmlns="http://www.w3.org/2000/svg" version="1.1" xmlns:xlink="http://www.w3.org/1999/xlink" viewBox="0 0 500 300">
  <defs>
    <style>
      .cls-1 {
        fill: url(#linear-gradient-12);
      }

      .cls-1, .cls-2, .cls-3, .cls-4, .cls-5, .cls-6, .cls-7, .cls-8, .cls-9, .cls-10, .cls-11, .cls-12, .cls-13, .cls-14, .cls-15, .cls-16, .cls-17, .cls-18 {
        stroke-width: 0px;
      }

      .cls-2 {
        fill: url(#linear-gradient-17);
      }

      .cls-3 {
        fill: url(#linear-gradient);
      }

      .cls-4 {
        fill: #000;
      }

      .cls-5 {
        fill: url(#linear-gradient-6);
      }

      .cls-6 {
        fill: url(#linear-gradient-15);
      }

      .cls-7 {
        fill: url(#linear-gradient-11);
      }

      .cls-8 {
        fill: url(#linear-gradient-5);
      }

      .cls-9 {
        fill: url(#linear-gradient-13);
      }

      .cls-10 {
        fill: url(#linear-gradient-16);
      }

      .cls-11 {
        fill: url(#linear-gradient-14);
      }

      .cls-12 {
        fill: url(#linear-gradient-2);
      }

      .cls-13 {
        fill: url(#linear-gradient-7);
      }

      .cls-14 {
        fill: url(#linear-gradient-3);
      }

      .cls-15 {
        fill: url(#linear-gradient-9);
      }

      .cls-16 {
        fill: url(#linear-gradient-8);
      }

      .cls-17 {
        fill: url(#linear-gradient-10);
      }

      .cls-18 {
        fill: url(#linear-gradient-4);
      }
    </style>
    <linearGradient id="linear-gradient" x1="39.94" y1="93.91" x2="402.57" y2="271.48" gradientUnits="userSpaceOnUse">
      <stop offset="0" stop-color="#5951b4"/>
      <stop offset=".25" stop-color="#bf20b8"/>
      <stop offset=".5" stop-color="#9234ac"/>
      <stop offset=".75" stop-color="#575cba"/>
      <stop offset="1" stop-color="#2895da"/>
    </linearGradient>
    <linearGradient id="linear-gradient-2" x1="59.68" y1="53.6" x2="422.31" y2="231.18" xlink:href="#linear-gradient"/>
    <linearGradient id="linear-gradient-3" x1="67.81" y1="36.99" x2="430.44" y2="214.57" xlink:href="#linear-gradient"/>
    <linearGradient id="linear-gradient-4" x1="82.67" y1="6.64" x2="445.3" y2="184.22" xlink:href="#linear-gradient"/>
    <linearGradient id="linear-gradient-5" x1="86.56" y1="-1.31" x2="449.2" y2="176.27" xlink:href="#linear-gradient"/>
    <linearGradient id="linear-gradient-6" x1="83.23" y1="5.5" x2="445.86" y2="183.07" xlink:href="#linear-gradient"/>
    <linearGradient id="linear-gradient-7" x1="74.99" y1="22.33" x2="437.62" y2="199.91" xlink:href="#linear-gradient"/>
    <linearGradient id="linear-gradient-8" x1="69.7" y1="33.13" x2="432.33" y2="210.7" xlink:href="#linear-gradient"/>
    <linearGradient id="linear-gradient-9" x1="65.37" y1="41.98" x2="428" y2="219.55" xlink:href="#linear-gradient"/>
    <linearGradient id="linear-gradient-10" x1="61.9" y1="49.06" x2="424.53" y2="226.64" xlink:href="#linear-gradient"/>
    <linearGradient id="linear-gradient-11" x1="59.15" y1="54.67" x2="421.78" y2="232.25" xlink:href="#linear-gradient"/>
    <linearGradient id="linear-gradient-12" x1="57.07" y1="58.92" x2="419.7" y2="236.5" xlink:href="#linear-gradient"/>
    <linearGradient id="linear-gradient-13" x1="55.43" y1="62.28" x2="418.06" y2="239.86" xlink:href="#linear-gradient"/>
    <linearGradient id="linear-gradient-14" x1="54.1" y1="65" x2="416.73" y2="242.57" xlink:href="#linear-gradient"/>
    <linearGradient id="linear-gradient-15" x1="80.27" y1="11.55" x2="442.9" y2="189.13" xlink:href="#linear-gradient"/>
    <linearGradient id="linear-gradient-16" x1="30.54" y1="113.1" x2="393.17" y2="290.67" xlink:href="#linear-gradient"/>
    <linearGradient id="linear-gradient-17" x1="61.66" y1="49.54" x2="424.29" y2="227.12" xlink:href="#linear-gradient"/>
  </defs>
  <g>
    <g>
      <g>
        <g>
          <path class="cls-3" d="M275,153.7c-1.75-2.23-3.9-3.35-6.47-3.35-2.33,0-4.67,1.07-7.02,3.2-2.35,2.13-6.12,6.64-11.31,13.53l9.95-16.8c-3,.55-5.8.59-8.35,0l-48.37,80.08c1.55-.58,3.13-.87,4.73-.87,1.07,0,2.45.19,4.15.58l27.86-46.47c-.49,1.5-.73,2.69-.73,3.56,0,2.91,1.55,4.36,4.65,4.36,4.51,0,10.76-2.64,18.76-7.93,9.84-6.5,14.76-13.7,14.76-21.6,0-3.3-.87-6.06-2.62-8.29ZM261.44,177.37c-7.2,8.7-13.03,13.06-17.49,13.06-2.28,0-3.42-1.24-3.42-3.71,0-3.3,3.22-9.36,9.67-18.18,8.34-11.39,14.28-17.09,17.82-17.09,2.81,0,4.22,1.58,4.22,4.73,0,5.43-3.6,12.5-10.8,21.2Z"/>
          <path class="cls-12" d="M319.19,167.12c0,.15-.44.78-1.31,1.89l-3.13,3.92c-10.05,12.39-18.66,18.59-25.84,18.59-3.4,0-6.25-1.22-8.55-3.67-2.3-2.45-3.46-5.52-3.46-9.2,0-8.73,6.08-16.41,18.26-23.06,6.4-3.49,11.61-5.24,15.64-5.24,1.75,0,3.24.52,4.47,1.56,1.24,1.04,1.85,2.32,1.85,3.82,0,3.49-2.28,6.46-6.84,8.91-4.56,2.45-12.17,4.74-22.84,6.87-3.3,4.99-4.95,9.16-4.95,12.51,0,4.17,2.26,6.26,6.77,6.26,7.67,0,17.06-7.48,28.17-22.44.58-.78,1.07-1.16,1.46-1.16.19.05.29.19.29.44ZM313.04,153.63c0-1.55-.85-2.33-2.55-2.33-2.57,0-5.95,1.78-10.15,5.35-4.19,3.56-8.3,8.18-12.33,13.86,6.98-1.79,12.9-4.33,17.75-7.6,4.85-3.27,7.27-6.36,7.27-9.27Z"/>
          <path class="cls-14" d="M370.32,167.05c0,1.02-3.54,5.73-10.63,14.13-5.73,6.9-10.24,10.34-13.54,10.34-2.23,0-4.05-.84-5.46-2.51-1.41-1.67-2.11-3.77-2.11-6.29s.78-5.46,2.33-8.51c-4.85,6.79-8.56,11.37-11.13,13.75-2.57,2.37-5.07,3.56-7.49,3.56-2.57,0-4.73-1.1-6.47-3.31-1.75-2.21-2.62-4.98-2.62-8.33,0-9.31,6.57-17.55,19.71-24.73,5.77-3.2,10.42-4.8,13.96-4.8,3.01,0,4.51,1.45,4.51,4.36,0,.82-.19,1.92-.58,3.27l3.71-7.05c1.45.34,2.74.51,3.85.51,1.31,0,3.01-.17,5.09-.51l-12.87,21.31c-4.46,7.47-6.69,12.39-6.69,14.76s.95,3.42,2.84,3.42,5.05-2.22,9.32-6.67c4.27-4.44,8.62-9.92,13.04-16.43.29-.48.56-.73.8-.73.29,0,.44.15.44.44ZM350.28,155.01c0-2.37-1.09-3.56-3.27-3.56-4.46,0-10.32,4.36-17.56,13.09-7.25,8.73-10.87,15.78-10.87,21.16,0,3.15,1.41,4.73,4.22,4.73,3.35,0,9.14-5.55,17.38-16.66,6.74-9.12,10.11-15.37,10.11-18.76Z"/>
          <path class="cls-18" d="M409.04,115.52c-.39.68-.99,1.67-1.82,2.98-1.26,2.04-3.15,5.07-5.67,9.09-1.21,2.09-3.08,5.21-5.6,9.38l-12.51,20.22c-4.17,6.74-7.71,12.85-10.62,18.33-3.25,6.11-5.87,10.84-7.86,14.18l-.95,1.45c-1.31-.29-2.59-.44-3.85-.44-1.07,0-2.64.15-4.73.44,1.12-1.89,2.35-4.02,3.71-6.4l8.44-14.69c1.26-2.18,3.15-5.48,5.67-9.89l26.69-44.66c1.99.39,3.47.58,4.44.58s2.52-.19,4.65-.58ZM415.34,167.05c-.05.15-.29.53-.73,1.17l-3.13,4.3c-9.17,12.67-16.09,19.01-20.75,19.01-2.09,0-3.93-.7-5.53-2.11-1.6-1.41-2.4-3.01-2.4-4.81,0-1.55,1.36-5.02,4.07-10.41l.07-.29c.92-1.8,1.38-3.13,1.38-4.01,0-1.07-.8-2.06-2.4-2.99-1.84.78-3.37,1.17-4.58,1.17-1.7,0-2.55-.49-2.55-1.46,0-.82.8-1.23,2.4-1.23s2.98.24,4.29.73c2.42-1.06,6.3-4.67,11.64-10.81,2.86-3.29,5.79-4.93,8.8-4.93,3.68,0,5.53,1.75,5.53,5.24,0,2.33-.93,4.64-2.8,6.95-1.87,2.3-3.72,3.45-5.56,3.45-2.09,0-3.13-.94-3.13-2.84,0-1.75,1.57-3.61,4.73-5.6,1.31-.82,1.96-1.99,1.96-3.49,0-1.16-.75-1.75-2.26-1.75-2.09,0-4.7,1.84-7.85,5.51-4.03,4.6-7.3,7.45-9.82,8.56,5.04,2.33,7.56,5.03,7.56,8.09,0,1.7-1.19,4.98-3.56,9.83-1.02,2.04-1.53,3.45-1.53,4.22,0,1.26.8,1.89,2.4,1.89,4.56,0,12-7.7,22.33-23.09.34-.48.66-.73.95-.73.31,0,.47.15.47.44Z"/>
          <path class="cls-8" d="M439.81,138.83c0,1.93-3.03,5.78-9.09,11.53-.29,1.5-.44,2.81-.44,3.93,0,2.81,1.28,7.27,3.86,13.38,1.31,3.05,1.96,5.63,1.96,7.71,0,4.36-2.12,8.15-6.36,11.35-4.24,3.2-9.27,4.8-15.09,4.8-3.3,0-5.93-.93-7.89-2.8-1.96-1.87-2.95-4.38-2.95-7.53,0-3.64,1.3-7.18,3.89-10.62,2.59-3.44,5.27-5.16,8.04-5.16.48,0,.92.1,1.31.29l5.82-7.13c1.75-2.08,4.07-4.97,6.98-8.65.82-3.39,2.08-6.3,3.78-8.73,1.7-2.42,3.37-3.64,5.02-3.64.78,0,1.16.43,1.16,1.27ZM429.7,167.52c0-1.45-.05-2.9-.15-4.33-.1-1.43-.15-3.48-.15-6.15,0-2.18.1-4,.29-5.46-2.72,3.44-6.64,8.29-11.78,14.55.92.78,1.38,1.72,1.38,2.84,0,2.86-2.35,4.8-7.05,5.82-1.89.44-3.53,1.47-4.91,3.09-1.38,1.63-2.07,3.33-2.07,5.13,0,1.94.7,3.56,2.11,4.87,1.41,1.31,3.15,1.96,5.24,1.96,4.07,0,7.94-2.36,11.6-7.09,3.66-4.73,5.49-9.81,5.49-15.24Z"/>
        </g>
        <g>
          <path class="cls-5" d="M202.52,83.74c7-9.33,15.31-15.25,24.71-17.6,4.77-1.19,9.61-1.65,14.39-1.39,5.29.3,9.43,1.79,12.68,4.57.23.2.47.38.71.56l.51.38.86-.87-.17-.18c-.24-.26-3.02-4.52-11.88-6.42-4.79-1.02-9.66-.72-14.68.24-9.79,1.86-18.53,7.7-25.99,17.35-.8,1.04-1.51,2.14-2.2,3.2-.32.49-.64.99-.96,1.48l-.2.29.72.37,1.5-1.99Z"/>
          <path class="cls-13" d="M209.86,92.24s.06,0,.09,0c1.58,0,3.73-1.35,4.56-2.88.88-1.61.29-3.13-1.25-3.26-.82-.07-1.76.2-2.64.75-.9.56-1.65,1.35-2.1,2.22-.44.83-.53,1.62-.26,2.22.26.58.83.92,1.61.95Z"/>
          <path class="cls-16" d="M204.72,102.74c.08.01.17.02.26.02.62,0,1.37-.24,2.11-.69.84-.5,1.54-1.19,1.91-1.88.77-1.43.26-2.74-1.11-2.85-1.45-.12-3.14.9-4.04,2.42-.87,1.47-.48,2.81.86,2.98Z"/>
          <path class="cls-15" d="M205.03,107.39c-1.12-.11-2.9.97-3.56,2.14-.34.59-.43,1.21-.25,1.7.18.48.59.77,1.14.81.05,0,.11,0,.16,0,1.18,0,2.68-.94,3.36-2.12.35-.6.44-1.23.26-1.73-.17-.47-.58-.76-1.11-.81Z"/>
          <path class="cls-17" d="M202.55,120.39s.09,0,.13,0c.45,0,.97-.17,1.48-.47.56-.34,1.02-.81,1.3-1.31.58-1.04.22-1.98-.77-2.05-.48-.02-1.06.15-1.63.5-.56.35-1.03.82-1.29,1.29-.56,1.02-.19,1.98.79,2.05Z"/>
          <path class="cls-7" d="M203.28,127.18c.37,0,.78-.13,1.19-.38.45-.27.83-.66,1.05-1.06.47-.84.18-1.6-.62-1.66-.37-.03-.86.12-1.32.4-.45.28-.84.66-1.05,1.04-.45.82-.15,1.6.64,1.66.04,0,.07,0,.11,0Z"/>
          <path class="cls-1" d="M204.93,133.05c.33,0,.7-.12,1.07-.34.4-.24.74-.59.94-.95.42-.75.16-1.43-.56-1.48-.32-.03-.77.1-1.18.36-.41.25-.75.59-.94.93-.41.74-.14,1.43.57,1.48.03,0,.06,0,.1,0Z"/>
          <path class="cls-9" d="M207.15,138.07c.28,0,.61-.1.93-.3.35-.21.64-.51.82-.83.36-.65.14-1.24-.49-1.29-.29-.02-.67.09-1.03.31-.35.22-.65.51-.82.81-.35.64-.12,1.24.5,1.29.03,0,.06,0,.08,0Z"/>
          <path class="cls-11" d="M209.05,142.22c.26,0,.55-.09.83-.27.31-.19.58-.46.73-.74.32-.58.12-1.12-.44-1.16-.25-.03-.6.08-.92.28-.32.19-.58.46-.73.73-.31.57-.11,1.11.45,1.15.02,0,.05,0,.07,0Z"/>
        </g>
        <path class="cls-6" d="M276.39,92.06c-.15-.66-.29-1.29-.46-1.93-.56-2.32-1.14-4.72-1.31-7.29-.3-4.55-.24-9.38-.19-14.05v-1.19c.04-2.3-.29-3.8-1.1-5.02-7.02-10.62-15.51-15.77-25.93-15.69-1.58,0-3.22.22-4.81.41-.56.07-1.11.13-1.67.2-.57.06-1.16.33-1.8.8l-.82.59.72.21c.07.01.14.04.21.07.18.06.36.13.58.12,5.48-.17,10.61,1.5,15.7,5.11,2.68,1.91,4.46,5.23,6.18,8.44l.08.16c.32.59.49,1.03.06,1.88l-.16-.1c-.29-.18-.58-.36-.85-.56-5.96-4.35-10.89-6.79-15.98-7.9-8.02-1.75-16.44-.43-25.03,3.93-.61.31-1.2.64-1.79.97h0c-32.81,13.82-32.81,51.5-32.81,51.5,7.68-20.47,8.99-27.95,18.19-36.7l1.75-1.56c.83-.8,1.67-1.58,2.5-2.37,5.53-5.13,11.61-8.6,19.15-10.94,8.23-2.54,16.17-1.78,25,2.4,2.5,1.2,5.19,2.52,7.78,4.13,4.04,2.51,6.81,7.46,7.97,12.79,0,.01,0,.04.01.05.17.95.4,1.64.71,2.13,2.02,3.16,3.01,7.41,3.97,11.54l.08.35c.08.36.31.49.72.43l.46-.06-.06-.58c-.03-.36-.06-.72-.09-1.08-.06-.82-.13-1.66-.29-2.42-.23-1.07-.52-2.12-.78-3.12-.24-.89-.48-1.79-.69-2.71-.27-1.16-.45-2.43.25-4.05.54.25.82.79.82,1.66,0,3.46.85,6.29,1.67,9.02l.17.55c.22.77.45,1.61.52,2.5.09,1.28-.28,2.2-1.14,2.83-1.02.75-1.37,1.86-1.63,2.85-.3,1.17-.71,2.37-1.19,3.47-.2.46-.5.9-.89,1.45-.1.14-.19.29-.3.45l-.11-.41c-.14-.49-.24-.88-.33-1.28-1.23-5.68-3.24-10.02-5.94-12.91-1.9-2.03-2.93-4.4-3.4-7.96-.7-5.1-3.56-7.39-8.29-6.63-2.61.42-4.55-.24-5.95-2.01-3.08-3.91-8.34-4.48-13.72-1.58-1.53.84-3.02,1.95-4.44,3.27.44.25.83.58,1.11.96,1.15-.98,2.33-1.82,3.54-2.45,4.47-2.29,8.25-2.25,11.23.1,1.44,1.14,1.54,2.6.36,5.36-.32.75-.66,1.52-1,2.27-.73,1.64-1.51,3.33-2.08,5.04-1.22,3.64-1.33,6.97-.32,9.62l.54,1.41.08-1.85c0-.39.03-.78.03-1.17.01-.83.04-1.68.12-2.53.37-4,1.42-7.23,3.12-9.63,1.75-2.46,4.22-4.06,7.33-4.77,2.19-.5,4.09.19,5.45,2.01,2.02,2.68,1.94,7.93-.23,13.05l-.54,1.32-.42,1,.62.58.24-.31c.16-.23.33-.45.5-.67.38-.52.77-1.03,1.13-1.59,1.59-2.46,1.84-2.56,3.27-1.37,2.37,1.98,3.64,5.4,3.84,10.43.04.7-.01,1.44-.06,2.09-.02.27-.03.52-.05.74v.16s2.31,2.32,2.31,2.32l-1.31,3.73.48-.17c2.08-.74,3.61-2.67,4.97-4.37,1.7-2.14,3.06-4.68,4.03-7.52.92-2.65,1.03-5.1.38-7.95ZM251.37,49.4s-.06-.06-.09-.09c.68-.03,1.3.21,1.94.45.18.07.36.14.54.2-1.06.68-1.69.11-2.39-.56ZM257.28,53.15l-2.54-1.75c1.22-.8,2.48-.47,3.57.97l-1.03.78ZM260.85,56.49c-.25-.28-.54-.51-.82-.73-.53-.42-1.07-.85-1.36-1.62l1.4-1.21c.35.28.72.52,1.09.77.71.47,1.39.93,1.97,1.6l-2.28,1.19ZM262.87,59.24c-.36-.42-.74-.85-.73-1.69l2.68-.91,2.13,2.06-3.63,1.14c-.12-.22-.28-.41-.44-.6ZM265.1,63.38c-.42-.66-.76-1.19-.45-2.27l3.76-.89c.21.3.5.54.8.79.75.63,1.53,1.28,1.46,3.05-.48-.07-.92-.31-1.35-.54-.75-.4-1.57-.84-2.63-.29-.35.19-.74.48-1.15.93-.13-.29-.29-.54-.44-.79ZM269.99,81.57l-.44-1.61.62.39-.18,1.22ZM272.52,72.8c-.16.97-.35,2.07-.64,3.13-.09.33-.26.79-.58,1.09-.25.24-.54.33-.86.27-1.56-.27-2.58-2.95-2.2-5.58l4.41.28c-.05.26-.09.53-.14.8ZM271.9,69.89l-4.42-.3c-.09-.4-.24-.78-.4-1.17-.36-.89-.73-1.82-.42-3.26.82-.38,1.33-.07,1.87.25.15.09.31.18.47.26,1.43.68,1.7.65,3-.91,1.03,1.57,1,3.22-.1,5.14ZM266.96,104.91l.13-3.17.79,3.59-.92-.42Z"/>
      </g>
      <path class="cls-10" d="M246.97,140.2c-.23-1.28-.45-2.6-.96-3.72-.38-.84-1.11-1.55-1.98-1.96-.89-.41-2.33.05-3.67,1.15-1.37,1.15-1.8,2.29-1.34,3.5l.28.76.63-1.45c.09-.2.15-.32.19-.44.48-1.14,1.18-1.8,2.12-1.97.97-.17,1.73.55,1.55,1.46-.38,1.99-3.21,5.11-6.13,6.01-2.52.78-4.59,1.12-6.18,1.05-7.73-.37-13.02-2.81-16.18-7.44-.42-.62-.92-1.2-1.39-1.77-.67-.8-1.36-1.64-1.86-2.57-2.05-3.82-2.74-8.63-2.24-15.6.51-7.13,2.62-14.61,5.44-21.5,1.3-3.18,2.77-5.71,4.76-8.65.35-.52,2.49-3.38,4.73-5.89,7.54-8.49,12.95-8.1,12.95-8.1l-.53-1.83c-12.42,2.06-22.46,21.5-23.45,24.09-5.02,13.07-7.05,25.05-4.81,36.09.77,3.77,1.86,7.43,2.91,10.99.45,1.56.92,3.12,1.36,4.7.29,1.06.6,2.13.91,3.2.37,1.32.76,2.65,1.12,3.98.09.33.11.69.15,1.07.01.06.01.12.02.18-.28-.53-.55-1.06-.83-1.61-.61-1.2-1.23-2.43-1.91-3.61-.78-1.38-1.6-2.75-2.4-4.12.07.03.14.08.23.08.02.01.05.01.07.01.23,0,.5-.09.75-.25.28-.17.52-.41.66-.66.29-.53.11-1.01-.38-1.04-.24-.01-.54.07-.83.25-.28.17-.52.41-.66.66-.09.17-.12.33-.11.46-.05-.07-.09-.14-.12-.2-1.41-2.39-2.87-4.84-4.22-7.32-4.47-8.18-6.73-16.56-6.92-25.63-.11-4.9.69-10.14,2.39-15.58,1.48-4.75,4.87-9.18,7.97-12.86.89-1.06,1.86-2.13,2.86-3.17,4.54-4.75,10.05-8.37,16.9-11.1.98-.4,1.99-.79,3-1.36l1.44-.79-1.38.17c-3.18.4-6.47,1.48-9.79,3.24-4.54,2.39-9.03,5.67-13.72,10.01-6.48,6-10.87,11.35-13.79,16.81-1.54,2.9-3.18,6.3-3.63,9.61l-.03.24,1.03-.03.15-.35c.33-.71.63-1.44.93-2.15.68-1.6,1.38-3.25,2.25-4.84,1.22-2.23,2.76-4.64,4.58-7.16,1.12-1.54,2.41-3.12,3.94-4.8-.1.17-.2.34-.31.51-1.21,2.01-2.46,4.11-3.46,6.17-.98,2.04-1.72,4.23-2.17,6.54-1.48,7.55-1.48,14.49,0,20.64,2.13,8.86,5.72,17.29,10.69,25.04,3.7,5.77,6.27,12,7.65,18.54.2.97.29,1.8.27,2.59v.16c-.09,4.7-.17,9.54-1.36,14.67-.01-.18-.03-.36-.05-.53-.15-1.55-.29-3.16-.49-4.71-.93-7.47-4.49-13.37-8.06-18.77-1.02-1.54-2.08-3.05-3.13-4.56-2.15-3.08-4.38-6.26-6.21-9.63-5.15-9.48-7.18-20.21-6.05-31.89.03-.33.02-.71-.44-.95l-.52-.27-.15.68c-.09.4-.18.79-.28,1.19-.2.86-.42,1.74-.52,2.6-.69,5.39.08,10.21.83,14.88l.03.23c1.74,10.86,7.4,19.29,12.58,26.34,3.37,4.6,6.75,9.69,8.63,15.73,2.23,7.18,2.33,13.84.29,20.96-.01.05-.03.1-.04.14-.11.35-.99,4.88-5.6,9.61-12.22,9.02-25.06,14.87-39.28,17.86-7.82,1.64-14.8,2.48-21.36,2.53-1.25,0-2.45-.04-3.84-.11-.5-.02-1-.04-1.54-.06.21-.16.4-.32.59-.47.65-.51,1.2-.94,1.79-1.34,3.53-2.4,6.31-4.99,8.23-7.71,4.16-5.86,3.81-10.8-1.05-14.71-.61-.49-1.43-.85-2.31-1.22-.06-.02-.12-.04-.18-.08,3.58-.07,6.66.47,9.89,1.03.5.09,1.01.18,1.52.27l3.12.53-2.63-1.08c-.25-.11-.49-.21-.74-.32-.53-.23-1.07-.49-1.71-.65-4.58-1.2-9.15-1.54-13.98-1.03-.63.07-1.35.13-1.99.09-3.34-.2-6.96-.23-10.88.79,3.62-2.41,7.07-4,10.76-4.99l.41-.11-.08-.83-.4.08c-.27.05-.54.1-.8.15-.61.11-1.23.22-1.85.4-3.72,1.06-7.36,2.83-11.16,5.41-2.56,1.74-4.95,3.62-7.28,5.45l-1.23.97c-.69.54-1.26,1.14-1.88,1.77-.06.06-.13.13-.2.2.21-2.73,2.04-5.23,3.96-7.85l1.72-2.37-1.83,1.41c-2.27,1.72-3.99,3.72-5.08,5.91-.49.99-.98,2.04-1.04,3.01-.06.93-.22,1.91-.38,2.85-.35,2.13-.71,4.32.06,6.3-.94-.57-1.53-1.3-2.01-1.99-.49-.7-.86-1.44-1.3-2.31-.2-.4-.42-.82-.65-1.26l-.59-1.09-.24,1.3c-.36,1.91.32,3.15,1.03,4.12,2.28,3.1,5.62,5.42,9.93,6.92.47.16.94.33,1.41.5,1.53.53,3.1,1.1,4.76,1.55,1.89.5,3.83.93,5.9,1.37.7.15,1.42.31,2.15.48-.09.04-.18.09-.26.13-.61.31-1.2.62-1.78.86-4.1,1.67-8.41,2.56-13.17,2.7-1.2.05-2.42.05-3.61.05-1.68,0-3.41,0-5.15.12-9.5.57-18.66,3.24-27.26,7.95-9.01,4.94-14.78,10.65-17.66,17.49-1.28,3.03-1.48,5.77-1.41,8.98.08,3.21.16,6.53,1.83,9.45.08.13.17.26.31.44l.79,1.12.3-.91c.18-.5.32-.98.46-1.42.29-.91.54-1.7.89-2.48,2.6-5.67,7.15-10,13.93-13.24,1.9-.91,2.36-1.75,2.49-2.91.47-3.9,1.64-9,6.69-14.03,3.65-3.63,8.33-6.06,13.91-7.22,2.9-.61,6.13-1.02,9.6-1.22,4.52-.27,10.47-.85,16.47-3.04,1.62-.59,3.18-1.33,4.5-1.98.9-.44,1.71-.59,2.87-.56,15.38.42,29.58-1.87,43.4-7,5.2-1.92,9.93-4.35,13.72-6.42-3.69,2.79-10.58,6.83-16.21,9.38-6.57,2.98-13.71,5.28-21.23,6.83-7.38,1.52-14.68,2.38-21.71,2.54l-3.18.08,2.87.5c3.47.61,7.36.63,11.9.05,13.77-1.72,25.76-5.29,36.67-10.9,4.59-2.37,9.09-5.17,14.15-8.82,1.65-1.18,3.26-2.39,4.96-3.68.19-.15.38-.28.57-.43-6.63,8.39-16.49,15.77-30.05,22.54-12.62,6.29-25.75,8.72-41.58,10.43l-.46.04-.07.95.39-.04c.98-.09,1.95-.19,2.93-.28,2.05-.19,4.09-.37,6.14-.58,16.93-1.77,32.81-7.55,47.21-17.18,7.48-5.01,13.28-10.21,17.63-15.79h.02c.32-.37.65-.83.99-1.33.76-1.04,2.13-2.7,2.84-3.74,3.3-4.77,7.45-17.25,11.03-23.19,3.58-5.92,7.72-10.99,12.64-15.49,4.01-3.65,6.98-7.02,9.11-10.27,3.34-5.1,4.64-9.89,3.89-14.27ZM68.25,264.88c-.05.13-.14.32-.2.36-.27.13-.66.21-1.14.25-.03-.08-.04-.21-.04-.28.21-.11.48-.19.77-.29.11-.03.22-.06.33-.11l.3.03s-.02.03-.03.04ZM70.1,260.72c-.27.23-.67.4-1.11.47-.49.08-.95.05-1.25-.12-.25-.13-.4-.39-.38-.67.03-.23.14-.44.34-.6.58-.45,1.91-.64,2.42-.34.6.33.59.74-.03,1.26ZM74.41,254.54h0c-.98.83-2.62,1.08-3.67.62-.52-.24-.8-.63-.8-1.06,0-.35.22-.72.58-1.01.9-.73,2.65-1.03,3.69-.64.03.01.05.02.08.04.49.21.75.54.76.94,0,.38-.23.77-.64,1.11ZM77.41,247.84c-.2.2-.54.37-.93.46-.52.12-1.05.1-1.42-.06-.29-.13-.45-.31-.45-.53,0-.22.15-.45.44-.68.3-.25.67-.43,1.07-.49.45-.07.9-.01,1.24.17.54.29.57.65.06,1.13ZM80.87,243.15v.03c-.11.05-.47.12-.71.16-.08.02-.15.03-.24.04,0-.06,0-.12.02-.18,0-.15.02-.38.05-.42.14-.09.69-.15.83-.1.09.06.11.32.06.46ZM120.06,219.05c-5-2.63-5.38-7.32-.98-11.96,3.98-4.21,8.91-6.56,14.65-6.98,2.5-.19,4.87-.15,6.89.12,1.54.2,2.9.53,4.04.95,3.3,1.23,4.95,3.4,5,6.53-2-2.57-5.74-3.96-11.37-4.21-4.51-.21-9.37,1.23-13.01,3.85-3.7,2.65-5.52,6.05-4.87,9.1.3,1.42,1.05,2.63,2.11,3.82-.83-.39-1.66-.8-2.46-1.22ZM133.05,223.57c-1.24-.22-2.47-.47-3.65-.74-.45-.11-1.01-.23-1.31-.48-.37-.3-.74-.59-1.13-.89-1.22-.96-2.49-1.96-3.46-3.08-1.43-1.66-2.53-4.32.46-7.5,2.87-3.06,6.92-4.98,11.69-5.56,3.25-.4,6.12-.13,8.6.8,1.12.42,2.16.98,3.12,1.66,2.31,1.68,2.62,3.79.92,6.27-1.47,2.12-3.17,4.37-5.75,6.46l-.32.27c-.23.19-.45.37-.69.56q-3.92,3.02-8.49,2.22ZM240.06,154.78c-2.1,2.82-4.73,5.86-8.01,9.3-5.72,6.01-10.58,12.5-14.44,19.35,1.79-4.3,4.01-7.69,8.15-12.82l.46-.57c.74-.91,1.49-1.84,2.16-2.79,1.88-2.67,1.75-5.37-.28-6.15-.32-.12-.67-.18-1.02-.18-1.2,0-2.59.64-3.78,1.82-1.55,1.54-1.88,3.07-.92,4.19l.53.6.31-1.52c.07-.38.15-.75.24-1.12.18-.79.79-1.49,1.5-1.74.74-.27,1.64-.28,2.07-.03.8.46.91,1.45.28,2.64-.48.91-1.05,1.78-1.69,2.55-2.81,3.44-5.52,6.81-7.8,10.35l.5-6.64c.58-7.58.24-13.07-1.09-17.77-.94-3.3-1.9-6.6-2.87-9.88l-1.06-3.65c.85,2.07,1.73,4.23,2.67,6.3,1.03,2.3,2.21,4.9,3.68,7.25,1.95,3.12,4.65,4.82,8.25,5.22,1.89.19,4.42.23,7.37-1.32,2.67-1.4,4.5-3.36,5.3-5.65.77-2.23.19-3.76-1.71-4.56-1.19-.51-2.7-.16-4.37,1-1.06.75-1.78,1.65-1.96,2.48-.2.87.23,1.56,1.17,1.89l.92.32-.27-.86c-.46-1.47-.18-1.96.66-2.58.94-.7,2.18-.75,3.01-.11.74.55.93,1.53.54,2.66-.4,1.18-1.36,2.35-2.62,3.22-1.54,1.05-3.15,1.58-4.91,1.62-3.52.1-6.19-1.02-8.2-3.34-1.81-2.07-3.27-4.67-4.59-8.18-.4-1.06-.76-2.14-1.15-3.34-.06-.17-.11-.33-.17-.5,2.62,2.49,6.38,3.76,9.7,4.86,1.39.46,3.09.74,5.19.82,2.21.08,4.5-.42,6.85-1.53,2.41-1.12,4.27-2.58,5.76-4.53.08,4.77-1.3,8.92-4.33,12.94Z"/>
    </g>
    <path class="cls-2" d="M200,168.42l-10.3-19.78.57-.17,2.72,22.79c.07.46-.61.73-.86.32-11.13-17.56-20.92-11.94-26.64,5.32-.12.39-.54.6-.92.48-.29-.09-.49-.36-.51-.65-.47-6.42-.73-12.86-.6-19.3.38-19.31,2.7-38.55,6.78-57.43,0,0,1.99.67,1.99.67-2.48,5.8-4.24,11.95-5.71,18.15-4.29,18.67-6.44,37.85-7.71,56.94-.09,1.4-2.26,1.54-2.39.02-.3-3.83-.79-7.66-1.75-11.33-3.34-13.88-12.85-17.27-24.43-9.32-.92.68-2.25-.34-1.82-1.4,2.42-6.51,4.95-12.98,7.96-19.23,8.87-18.83,20.04-36.57,33.55-52.44,0,0,1.34,1.4,1.34,1.4-5,4.11-9.6,8.71-13.88,13.59-8.56,9.8-15.95,20.61-22.55,31.82-3.29,5.62-6.42,11.36-9.21,17.23-.14.3-.5.43-.79.29-.24-.12-.37-.38-.33-.63.88-5.42,1.49-10.91,1.24-16.37-.14-7.75-3.14-17.41-11.98-18.59-8.15-1.08-16.23,2.51-23.17,6.48-.21.14-.49.07-.62-.14-.11-.18-.07-.4.07-.54,25.8-24.91,58.83-41.89,93.55-50.45,0,0,.2,1.3.2,1.3-34.08,3.85-71.37,15.01-94.88,41.25,0,0-1.59-1.26-1.59-1.26,6.24-7.75,12.1-15.9,17.25-24.41,3.75-6.36,7.38-12.95,9.09-20.13,1.03-4.29,1.01-9.72-3.55-11.69-6.67-2.94-14.28-2.06-21.22-.16-9.43,2.72-18.43,7.39-26.52,12.88-1.22.97-2.91-.78-1.79-1.98,5.22-5.7,11.01-10.59,17.16-15.09,18.43-13.46,40.8-22.13,63.8-22.14,15.24.24,30.37,2.36,44.93,6.89,10.89,3.44,21.46,8.34,30.57,15.33,3.05,2.38,5.91,4.84,8.47,7.99.47.58.39,1.44-.2,1.92-25.75,4.85-44.84,26.08-43.5,52.86.39,8.31,2.14,16.66,4.84,24.51.19.56-.11,1.17-.67,1.37-.47.16-.97-.02-1.23-.41-2.2-3.21-3.87-6.56-5.31-10.07-7.55-17.82-4.85-38.35,6.98-53.63,4.51-6.03,9.95-11.29,15.84-15.9l-.02,1.14c-26.11-18.57-60.73-20.61-91.42-14.87-.17.04-.23-.25-.05-.27,7.81-1.6,15.74-2.66,23.71-3.09,19.9-1.08,40.4,1.87,58.37,10.81,3.6,1.81,7.07,3.79,10.33,6.3.36.27.37.84.01,1.12-5.79,4.59-11.09,9.82-15.46,15.74-13.88,18.2-13.96,42.64-1.24,61.45,0,0-1.88,1.02-1.88,1.02-4.15-12.14-6.61-25.21-4.39-38.01,2.59-12.76,9.77-24.54,20.28-32.3,7.04-5.16,15.04-8.74,23.72-10.22,0,0-.95,2.22-.95,2.22-15.02-16.54-37.9-23.81-59.46-27.18-30.79-5.25-59.17,1.22-84.46,19.68-6.01,4.36-11.79,9.23-16.76,14.62l-1.79-1.98c12.62-8.17,27.24-15.88,42.73-14.82,5.21.51,11.81,2.59,12.85,8.52,2.52,15.24-18.13,41.44-27.49,53.28-.35.45-1.01.53-1.45.17-.43-.35-.5-1-.14-1.43,2.93-3.58,6.23-6.56,9.69-9.42,24.48-19.68,55.88-28.69,86.67-31.92.8-.06,1.03,1.12.2,1.3-34.46,8.37-67.62,24.97-93.2,49.78,0,0-.54-.68-.54-.68,4.78-2.87,9.92-5.15,15.4-6.34,23.08-4.84,22.79,19.88,20.15,35.75,0,0-1.12-.34-1.12-.34,2.77-5.96,5.85-11.74,9.1-17.43,6.54-11.37,13.87-22.31,22.41-32.29,4.29-4.98,8.91-9.7,13.97-13.94.88-.75,2.13.48,1.36,1.37-13.17,15.8-24.14,33.56-32.88,52.17-2.96,6.2-5.44,12.61-7.81,19.04l-1.87-1.37c13.03-9.11,24.61-4.73,28.2,10.67,1,3.88,1.49,7.83,1.78,11.77l-2.39.02c1.35-19.27,3.58-38.49,7.98-57.32,1.52-6.27,3.31-12.5,5.9-18.49.49-1.17,2.31-.56,1.99.67-5.36,24.92-8.44,50.62-6.76,76.13,0,0-1.44-.15-1.44-.15,1.69-4.98,3.94-9.9,7.7-13.69,8.14-8.22,16.8,1,21.15,8.28,0,0-.87.31-.87.31l-2.38-22.83c-.06-.34.44-.46.57-.17,0,0,10.01,19.93,10.01,19.93.08.15-.17.29-.25.13h0Z"/>
  </g>
  <g>
    <path class="cls-4" d="M251.35,114.08c-.37.05-.71.07-1.04.07h-9.31c-.31,0-.66-.02-1.03-.07-.37-.04-.71-.1-1.02-.16-.31-.06-.54-.12-.68-.18v4.26l.22-.02v-.2c0-.79.23-1.42.68-1.88.46-.46,1.09-.7,1.9-.72h2.6v13.06c-.02.39-.16.72-.44,1s-.61.42-1,.42h-.29v.22h7.43v-.22h-.29c-.39,0-.72-.14-1-.42s-.42-.61-.44-1v-13.06h2.6c.81.02,1.44.25,1.9.72.46.46.68,1.09.68,1.88v.2l.22.02v-4.26c-.13.06-.36.12-.67.18-.31.06-.65.11-1.02.16Z"/>
    <path class="cls-4" d="M268.06,116.41h-5.18v.22h.22c.34,0,.63.11.85.33.22.22.34.5.36.84v4.87h-5.14v-4.87c.02-.34.14-.62.37-.84.23-.22.51-.33.84-.33h.25v-.22h-6.71v.22h.25c.31,0,.59.11.83.33.24.22.36.5.36.84v10.68c0,.33-.12.61-.36.83s-.52.34-.83.34h-.25v.22h6.71v-.22h-.25c-.33,0-.61-.11-.84-.34s-.36-.5-.37-.83v-4.87h5.14v4.87c-.02.33-.13.61-.36.83s-.51.34-.85.34h-.22v.22h6.69v-.22h-.25c-.34,0-.63-.11-.85-.34s-.34-.5-.34-.83v-10.68c.02-.34.13-.62.36-.84.22-.22.51-.33.85-.33h.25v-.22h-1.53Z"/>
    <path class="cls-4" d="M281.33,127.31c-.38.52-.83.91-1.35,1.19-.52.28-1.08.41-1.69.41h-2.4v-5.21h2.13c.58.02,1.05.21,1.41.59.36.38.54.86.54,1.45v.11h.25v-5.25h-.25v.09c0,.57-.18,1.05-.54,1.44-.36.39-.83.59-1.41.61h-2.13v-5.36h2.76c.75.02,1.32.23,1.73.66.4.43.61,1.02.61,1.78v.16h.22v-3.9c-.16.06-.48.13-.95.21-.47.08-.92.12-1.34.12h-8.3v.22h.25c.33,0,.61.11.84.34s.35.51.35.85v10.66c0,.33-.12.61-.35.83s-.51.34-.84.34h-.25v.22h11.02l.74-4.42h-.2c-.18.72-.46,1.33-.84,1.85Z"/>
    <path class="cls-4" d="M302.19,115.11c-1.31-.63-2.87-.94-4.7-.94h-8.32l.02.23h.27c.39,0,.72.14,1.01.41.28.28.43.61.43,1v12.43c-.02.39-.16.72-.44,1s-.61.42-1,.42h-.29v.22h8.32c1.83,0,3.39-.31,4.7-.94s2.31-1.53,3.02-2.7c.7-1.17,1.05-2.58,1.05-4.21s-.35-3.03-1.05-4.21c-.7-1.17-1.71-2.07-3.02-2.7ZM301.39,125.66c-.39,1.02-.95,1.8-1.67,2.36-.73.55-1.59.83-2.59.83h-2.27v-13.64h2.27c1,0,1.87.28,2.59.83.72.55,1.28,1.34,1.67,2.36s.58,2.23.58,3.63-.2,2.62-.58,3.63Z"/>
    <path class="cls-4" d="M336.26,129.38c-.29-.16-.53-.43-.73-.79l-6.25-12.89h-.18c-.02.16-.07.38-.17.65s-.21.55-.34.85c-.13.3-.25.57-.36.81-.11.24-.19.42-.24.54l-4.61,9.94c-.21.42-.47.72-.79.9-.14.08-.28.13-.42.18-.02,0-.04,0-.06,0-.22-.07-.43-.21-.65-.43s-.47-.54-.77-.95c-.24-.34-.46-.68-.66-1.01-.2-.33-.37-.62-.52-.89-.14-.26-.25-.47-.33-.62-.21-.34-.52-.72-.93-1.12-.41-.4-.87-.68-1.38-.83.75-.12,1.34-.37,1.78-.75.44-.38.75-.83.93-1.35.18-.52.27-1.02.27-1.51,0-.75-.15-1.36-.44-1.84-.29-.48-.68-.85-1.17-1.11-.49-.26-1.03-.45-1.62-.56-.59-.11-1.19-.17-1.78-.17h-7.29v.22h.27c.31,0,.58.11.81.33.23.22.34.5.34.84v10.68c0,.33-.12.61-.35.83-.23.22-.51.34-.82.34h-.25v.22h6.69v-.22h-.22c-.28,0-.56-.1-.82-.3-.26-.2-.39-.49-.39-.86v-11.06c.16,0,.3,0,.43,0,.13,0,.28,0,.45.01.1,0,.27.02.49.07.22.05.46.15.72.3s.47.4.65.74c.18.34.28.8.31,1.4.02.2.02.36,0,.51-.02.14-.03.25-.05.33-.09.63-.24,1.11-.46,1.44s-.46.56-.73.7c-.27.13-.55.2-.83.2h-.34v.18c.13.02.31.12.52.3s.38.53.52,1.02c.06.24.13.49.21.75.08.26.18.52.29.78.11.26.24.52.37.77.13.26.27.51.4.76.4.64.82,1.12,1.24,1.44.43.31.93.52,1.5.62.58.1,1.26.15,2.05.15h5.45v-.22h-.16c-.25,0-.49-.1-.7-.3-.21-.2-.23-.5-.07-.89h-.02l.77-1.77h4.47l.77,1.77h-.02c.16.39.14.68-.07.89-.21.2-.44.3-.7.3h-.18v.22h7.25v-.22h-.18c-.3,0-.61-.09-.94-.27ZM326.27,125.75l1.83-4.22,1.82,4.22h-3.66Z"/>
    <path class="cls-4" d="M346.08,123.61h.31c.3,0,.53.08.71.22.17.15.25.37.23.67l-.02,2.6c-.03.46-.18.85-.44,1.16-.26.31-.58.54-.96.7-.38.16-.79.24-1.22.24-.85,0-1.56-.24-2.12-.72-.56-.48-.98-1.16-1.27-2.04-.28-.88-.43-1.94-.43-3.16,0-1.32.16-2.43.49-3.35.33-.92.83-1.62,1.49-2.11.67-.49,1.51-.73,2.52-.73.61,0,1.21.1,1.78.3.57.2,1.09.57,1.56,1.09.46.52.83,1.28,1.1,2.27h.16l.16-3.68c-.39-.19-.89-.36-1.51-.49-.62-.13-1.29-.24-2.02-.31-.73-.07-1.43-.11-2.12-.11-1.59,0-2.95.28-4.08.83-1.14.55-2.01,1.35-2.61,2.39-.61,1.04-.91,2.28-.91,3.74s.31,2.74.92,3.79c.61,1.05,1.48,1.85,2.59,2.41s2.42.84,3.92.84c1.06,0,2.05-.13,2.97-.38.92-.25,1.72-.58,2.39-.98s1.16-.79,1.46-1.18l.02-3.1c-.03-.6.28-.9.94-.9h.29v-.18h-6.3v.18Z"/>
    <path class="cls-4" d="M367.34,117.99c-.71-.61-1.56-1.07-2.56-1.38-1-.31-2.11-.47-3.33-.47s-2.34.16-3.33.47c-1,.31-1.85.77-2.56,1.38s-1.25,1.34-1.62,2.21c-.37.87-.55,1.86-.55,2.96s.18,2.07.55,2.93c.37.86.9,1.59,1.62,2.2.71.6,1.56,1.07,2.56,1.38,1,.31,2.11.47,3.33.47s2.34-.16,3.33-.47c.99-.31,1.85-.77,2.56-1.38.71-.61,1.25-1.34,1.62-2.2.37-.86.55-1.84.55-2.93s-.18-2.09-.55-2.96c-.37-.87-.91-1.6-1.62-2.21ZM365.01,126.41c-.32.9-.78,1.6-1.38,2.07-.6.48-1.32.72-2.18.72s-1.58-.24-2.18-.72c-.6-.48-1.06-1.17-1.39-2.07-.33-.91-.49-1.99-.49-3.24s.16-2.36.49-3.28c.33-.91.79-1.61,1.39-2.09s1.32-.72,2.18-.72,1.58.24,2.18.72c.6.48,1.06,1.17,1.38,2.09.32.91.48,2,.48,3.28s-.16,2.34-.48,3.24Z"/>
    <path class="cls-4" d="M385.44,116.41h-5.34v.22h.38c.34,0,.63.1.86.31.23.21.35.48.35.81h0l.02,6.84-9.87-8.48h-.2c.18.87.27,1.68.27,2.45v9.96c0,.33-.12.6-.36.81-.24.21-.53.31-.87.31h-.36v.22h6.91v-.22h-.36c-.33,0-.61-.1-.85-.31-.24-.21-.37-.48-.38-.81v-6.85l9.87,8.47h.2c-.09-.39-.16-.77-.2-1.16-.05-.38-.07-.83-.07-1.36v-9.87c.01-.33.14-.6.38-.81.24-.21.52-.31.85-.31h.38v-.22h-1.62Z"/>
  </g>
</svg>